<svg xmlns="http://www.w3.org/2000/svg" viewBox="0 0 204.18 206.72"><defs><style>.cls-1{fill:#7a9e9f;}.cls-2{fill:#fdfefd;}.cls-3{fill:#5c5c5b;}.cls-4{fill:#fe5f55;}.cls-5{fill:#e74f04;}</style></defs><title>Asset 4</title><g id="Layer_2" data-name="Layer 2"><g id="Layer_3" data-name="Layer 3"><path class="cls-1" d="M175.54,168.73c1,1.6,2,2.72,3.21.16,13-14.31,21-30.93,23.64-50.11a6.76,6.76,0,0,0,.85-4l.2-5c.26-1.19,1.77-2.84-1.06-2.91h-86c-.8-.16-2.17-.34-2.18.28,0,1.16,1.25,1.81,2.23,2.44Q145.53,139.63,175.54,168.73Zm-73.13-71.1q44.23,0,88.45,0c4.28,0,10.32,1.94,12.39-.86,2.19-3-.09-8.57-.81-13C193.39,28.47,135.94-10.14,81.35,2.36,36.36,12.66,6,46.62.52,92.59.08,96.31.65,97.76,5,97.74,37.45,97.54,69.93,97.63,102.41,97.63Zm-52,11.24h-38c-13.42,0-13.73.06-11.12,13.32,7.52,38.18,29.55,64.92,66,78,36.1,13,69.72,6.18,99.84-17.7,2.74-2.17,2.84-3.5.27-6q-32.65-32.34-65-65a8.34,8.34,0,0,0-6.54-2.71C80.69,108.93,65.53,108.87,50.38,108.87Z"/><path class="cls-1" d="M102.41,97.63c-32.48,0-65-.09-97.45.11C.65,97.76.08,96.31.52,92.59,6,46.62,36.36,12.66,81.35,2.36c54.59-12.5,112,26.11,121.09,81.37.73,4.42,3,10,.81,13-2.07,2.8-8.11.85-12.39.86Q146.64,97.7,102.41,97.63Z"/><path class="cls-1" d="M50.38,108.87c15.15,0,30.31.06,45.46-.06a8.34,8.34,0,0,1,6.54,2.71q32.41,32.58,65,65c2.57,2.55,2.46,3.88-.27,6-30.12,23.87-63.73,30.69-99.84,17.7-36.45-13.12-58.49-39.86-66-78C-1.33,108.93-1,108.87,12.41,108.87Z"/><path class="cls-1" d="M203.44,109.8l-.2,5c-1.52,1.06-2.79,2.17-.85,4-2.63,19.18-10.68,35.8-23.64,50.11l-3.21-.16q-30-29.1-59.11-59.12l0-2.72h86C202.4,108,202.24,109.14,203.44,109.8Z"/><path class="cls-1" d="M202.39,118.78c-1.94-1.8-.68-2.91.85-4A6.76,6.76,0,0,1,202.39,118.78Z"/><path class="cls-1" d="M116.37,106.89l0,2.72c-1-.62-2.24-1.27-2.23-2.44C114.2,106.56,115.58,106.73,116.37,106.89Z"/><path class="cls-1" d="M203.44,109.8c-1.2-.66-1-1.82-1.06-2.91C205.21,107,203.7,108.61,203.44,109.8Z"/><path class="cls-1" d="M175.54,168.73l3.21.16C177.55,171.45,176.53,170.33,175.54,168.73Z"/><path class="cls-2" d="M175.54,168.73c1,1.6,2,2.72,3.21.16,13-14.31,21-30.93,23.64-50.11a6.76,6.76,0,0,0,.85-4l.2-5c.26-1.19,1.77-2.84-1.06-2.91h-86c-.8-.16-2.17-.34-2.18.28,0,1.16,1.25,1.81,2.23,2.44Q145.53,139.63,175.54,168.73Zm-73.13-71.1q44.23,0,88.45,0c4.28,0,10.32,1.94,12.39-.86,2.19-3-.09-8.57-.81-13C193.39,28.47,135.94-10.14,81.35,2.36,36.36,12.66,6,46.62.52,92.59.08,96.31.65,97.76,5,97.74,37.45,97.54,69.93,97.63,102.41,97.63Zm-52,11.24h-38c-13.42,0-13.73.06-11.12,13.32,7.52,38.18,29.55,64.92,66,78,36.1,13,69.72,6.18,99.84-17.7,2.74-2.17,2.84-3.5.27-6q-32.65-32.34-65-65a8.34,8.34,0,0,0-6.54-2.71C80.69,108.93,65.53,108.87,50.38,108.87Z"/><path class="cls-1" d="M102.41,97.63c-32.48,0-65-.09-97.45.11C.65,97.76.08,96.31.52,92.59,6,46.62,36.36,12.66,81.35,2.36c54.59-12.5,112,26.11,121.09,81.37.73,4.42,3,10,.81,13-2.07,2.8-8.11.85-12.39.86Q146.64,97.7,102.41,97.63Z"/><path class="cls-3" d="M50.38,108.87c15.15,0,30.31.06,45.46-.06a8.34,8.34,0,0,1,6.54,2.71q32.41,32.58,65,65c2.57,2.55,2.46,3.88-.27,6-30.12,23.87-63.73,30.69-99.84,17.7-36.45-13.12-58.49-39.86-66-78C-1.33,108.93-1,108.87,12.41,108.87Z"/><path class="cls-4" d="M203.44,109.8l-.2,5c-1.52,1.06-2.79,2.17-.85,4-2.63,19.18-10.68,35.8-23.64,50.11l-3.21-.16q-30-29.1-59.11-59.12l0-2.72h86C202.4,108,202.24,109.14,203.44,109.8Z"/><path class="cls-5" d="M202.39,118.78c-1.94-1.8-.68-2.91.85-4A6.76,6.76,0,0,1,202.39,118.78Z"/><path class="cls-5" d="M116.37,106.89l0,2.72c-1-.62-2.24-1.27-2.23-2.44C114.2,106.56,115.58,106.73,116.37,106.89Z"/><path class="cls-5" d="M203.44,109.8c-1.2-.66-1-1.82-1.06-2.91C205.21,107,203.7,108.61,203.44,109.8Z"/><path class="cls-5" d="M175.54,168.73l3.21.16C177.55,171.45,176.53,170.33,175.54,168.73Z"/></g></g></svg>